<?xml version="1.0" encoding="UTF-8" standalone="no"?>
<!DOCTYPE svg PUBLIC "-//W3C//DTD SVG 1.1//EN"
 "http://www.w3.org/Graphics/SVG/1.1/DTD/svg11.dtd">
<!-- Generated by graphviz version 2.47.0 (20210316.0004)
 -->
<!-- Title: dependency&#45;cruiser output Pages: 1 -->
<svg width="493pt" height="396pt"
 viewBox="0.00 0.00 493.00 396.00" xmlns="http://www.w3.org/2000/svg" xmlns:xlink="http://www.w3.org/1999/xlink">
<g id="graph0" class="graph" transform="scale(1 1) rotate(0) translate(4 392)">
<title>dependency&#45;cruiser output</title>
<polygon fill="white" stroke="transparent" points="-4,4 -4,-392 489,-392 489,4 -4,4"/>
<g id="clust1" class="cluster">
<title>cluster_server</title>
<path fill="#ffffff" stroke="black" stroke-width="2" d="M20,-56C20,-56 465,-56 465,-56 471,-56 477,-62 477,-68 477,-68 477,-368 477,-368 477,-374 471,-380 465,-380 465,-380 20,-380 20,-380 14,-380 8,-374 8,-368 8,-368 8,-68 8,-68 8,-62 14,-56 20,-56"/>
<text text-anchor="middle" x="242.5" y="-368.8" font-family="Helvetica,sans-Serif" font-weight="bold" font-size="9.00">server</text>
</g>
<g id="clust2" class="cluster">
<title>cluster_server/action</title>
<path fill="#ffffff" stroke="black" stroke-width="2" d="M28,-244C28,-244 346,-244 346,-244 352,-244 358,-250 358,-256 358,-256 358,-342 358,-342 358,-348 352,-354 346,-354 346,-354 28,-354 28,-354 22,-354 16,-348 16,-342 16,-342 16,-256 16,-256 16,-250 22,-244 28,-244"/>
<text text-anchor="middle" x="187" y="-342.8" font-family="Helvetica,sans-Serif" font-weight="bold" font-size="9.00">action</text>
</g>
<g id="clust3" class="cluster">
<title>cluster_server/cell</title>
<path fill="#ffffff" stroke="black" stroke-width="2" d="M403,-134C403,-134 449,-134 449,-134 455,-134 461,-140 461,-146 461,-146 461,-204 461,-204 461,-210 455,-216 449,-216 449,-216 403,-216 403,-216 397,-216 391,-210 391,-204 391,-204 391,-146 391,-146 391,-140 397,-134 403,-134"/>
<text text-anchor="middle" x="426" y="-204.8" font-family="Helvetica,sans-Serif" font-weight="bold" font-size="9.00">cell</text>
</g>
<g id="clust4" class="cluster">
<title>cluster_server/exception</title>
<path fill="#ffffff" stroke="black" stroke-width="2" d="M395,-71C395,-71 457,-71 457,-71 463,-71 469,-77 469,-83 469,-83 469,-111 469,-111 469,-117 463,-123 457,-123 457,-123 395,-123 395,-123 389,-123 383,-117 383,-111 383,-111 383,-83 383,-83 383,-77 389,-71 395,-71"/>
<text text-anchor="middle" x="426" y="-111.8" font-family="Helvetica,sans-Serif" font-weight="bold" font-size="9.00">exception</text>
</g>
<g id="clust5" class="cluster">
<title>cluster_server/game</title>
<path fill="#ffffff" stroke="black" stroke-width="2" d="M203,-184C203,-184 249,-184 249,-184 255,-184 261,-190 261,-196 261,-196 261,-224 261,-224 261,-230 255,-236 249,-236 249,-236 203,-236 203,-236 197,-236 191,-230 191,-224 191,-224 191,-196 191,-196 191,-190 197,-184 203,-184"/>
<text text-anchor="middle" x="226" y="-224.8" font-family="Helvetica,sans-Serif" font-weight="bold" font-size="9.00">game</text>
</g>
<g id="clust6" class="cluster">
<title>cluster_server/grid</title>
<path fill="#ffffff" stroke="black" stroke-width="2" d="M203,-124C203,-124 249,-124 249,-124 255,-124 261,-130 261,-136 261,-136 261,-164 261,-164 261,-170 255,-176 249,-176 249,-176 203,-176 203,-176 197,-176 191,-170 191,-164 191,-164 191,-136 191,-136 191,-130 197,-124 203,-124"/>
<text text-anchor="middle" x="226" y="-164.8" font-family="Helvetica,sans-Serif" font-weight="bold" font-size="9.00">grid</text>
</g>
<g id="clust7" class="cluster">
<title>cluster_server/player</title>
<path fill="#ffffff" stroke="black" stroke-width="2" d="M203,-64C203,-64 363,-64 363,-64 369,-64 375,-70 375,-76 375,-76 375,-104 375,-104 375,-110 369,-116 363,-116 363,-116 203,-116 203,-116 197,-116 191,-110 191,-104 191,-104 191,-76 191,-76 191,-70 197,-64 203,-64"/>
<text text-anchor="middle" x="283" y="-104.8" font-family="Helvetica,sans-Serif" font-weight="bold" font-size="9.00">player</text>
</g>
<g id="clust8" class="cluster">
<title>cluster_server/scenario</title>
<path fill="#ffffff" stroke="black" stroke-width="2" d="M105,-68C105,-68 159,-68 159,-68 165,-68 171,-74 171,-80 171,-80 171,-108 171,-108 171,-114 165,-120 159,-120 159,-120 105,-120 105,-120 99,-120 93,-114 93,-108 93,-108 93,-80 93,-80 93,-74 99,-68 105,-68"/>
<text text-anchor="middle" x="132" y="-108.8" font-family="Helvetica,sans-Serif" font-weight="bold" font-size="9.00">scenario</text>
</g>
<g id="clust9" class="cluster">
<title>cluster_server/ship</title>
<path fill="#ffffff" stroke="black" stroke-width="2" d="M300,-124C300,-124 346,-124 346,-124 352,-124 358,-130 358,-136 358,-136 358,-164 358,-164 358,-170 352,-176 346,-176 346,-176 300,-176 300,-176 294,-176 288,-170 288,-164 288,-164 288,-136 288,-136 288,-130 294,-124 300,-124"/>
<text text-anchor="middle" x="323" y="-164.8" font-family="Helvetica,sans-Serif" font-weight="bold" font-size="9.00">ship</text>
</g>
<!-- http -->
<g id="node1" class="node">
<title>http</title>
<path fill="#ffffcc" stroke="grey" d="M153,-48C153,-48 111,-48 111,-48 108,-48 105,-45 105,-42 105,-42 105,-36 105,-36 105,-33 108,-30 111,-30 111,-30 153,-30 153,-30 156,-30 159,-33 159,-36 159,-36 159,-42 159,-42 159,-45 156,-48 153,-48"/>
<text text-anchor="middle" x="132" y="-36.8" font-family="Helvetica,sans-Serif" font-size="9.00" fill="grey">http</text>
</g>
<!-- path -->
<g id="node2" class="node">
<title>path</title>
<path fill="#ffffcc" stroke="grey" d="M153,-18C153,-18 111,-18 111,-18 108,-18 105,-15 105,-12 105,-12 105,-6 105,-6 105,-3 108,0 111,0 111,0 153,0 153,0 156,0 159,-3 159,-6 159,-6 159,-12 159,-12 159,-15 156,-18 153,-18"/>
<text text-anchor="middle" x="132" y="-6.8" font-family="Helvetica,sans-Serif" font-size="9.00" fill="grey">path</text>
</g>
<!-- server/action/Action.js -->
<g id="node3" class="node">
<title>server/action/Action.js</title>
<g id="a_node3"><a xlink:href="server/action/Action.js" xlink:title="Action.js">
<path fill="#ffffcc" stroke="black" d="M344,-303C344,-303 302,-303 302,-303 299,-303 296,-300 296,-297 296,-297 296,-291 296,-291 296,-288 299,-285 302,-285 302,-285 344,-285 344,-285 347,-285 350,-288 350,-291 350,-291 350,-297 350,-297 350,-300 347,-303 344,-303"/>
<text text-anchor="middle" x="323" y="-291.8" font-family="Helvetica,sans-Serif" font-size="9.00">Action.js</text>
</a>
</g>
</g>
<!-- server/action/ActionFactory.js -->
<g id="node4" class="node">
<title>server/action/ActionFactory.js</title>
<g id="a_node4"><a xlink:href="server/action/ActionFactory.js" xlink:title="ActionFactory.js">
<path fill="#ffffcc" stroke="black" d="M166.5,-292C166.5,-292 97.5,-292 97.5,-292 94.5,-292 91.5,-289 91.5,-286 91.5,-286 91.5,-280 91.5,-280 91.5,-277 94.5,-274 97.5,-274 97.5,-274 166.5,-274 166.5,-274 169.5,-274 172.5,-277 172.5,-280 172.5,-280 172.5,-286 172.5,-286 172.5,-289 169.5,-292 166.5,-292"/>
<text text-anchor="middle" x="132" y="-280.8" font-family="Helvetica,sans-Serif" font-size="9.00">ActionFactory.js</text>
</a>
</g>
</g>
<!-- server/action/ActionFactory.js&#45;&gt;server/action/Action.js -->
<g id="edge1" class="edge">
<title>server/action/ActionFactory.js&#45;&gt;server/action/Action.js</title>
<path fill="none" stroke="#000000" stroke-width="2" stroke-opacity="0.200000" d="M172.58,-284.89C199.04,-286.2 234.61,-288.05 266,-290 273.6,-290.47 281.78,-291.03 289.47,-291.57"/>
<polygon fill="#000000" fill-opacity="0.200000" stroke="#000000" stroke-width="2" stroke-opacity="0.200000" points="289.66,-293.69 295.8,-292.03 289.96,-289.5 289.66,-293.69"/>
</g>
<!-- server/action/MissileAction.js -->
<g id="node5" class="node">
<title>server/action/MissileAction.js</title>
<g id="a_node5"><a xlink:href="server/action/MissileAction.js" xlink:title="MissileAction.js">
<path fill="#ffffcc" stroke="black" d="M260,-270C260,-270 192,-270 192,-270 189,-270 186,-267 186,-264 186,-264 186,-258 186,-258 186,-255 189,-252 192,-252 192,-252 260,-252 260,-252 263,-252 266,-255 266,-258 266,-258 266,-264 266,-264 266,-267 263,-270 260,-270"/>
<text text-anchor="middle" x="226" y="-258.8" font-family="Helvetica,sans-Serif" font-size="9.00">MissileAction.js</text>
</a>
</g>
</g>
<!-- server/action/ActionFactory.js&#45;&gt;server/action/MissileAction.js -->
<g id="edge2" class="edge">
<title>server/action/ActionFactory.js&#45;&gt;server/action/MissileAction.js</title>
<path fill="none" stroke="#000000" stroke-width="2" stroke-opacity="0.200000" d="M170.69,-273.99C174.18,-273.15 177.75,-272.3 181.29,-271.45"/>
<polygon fill="#000000" fill-opacity="0.200000" stroke="#000000" stroke-width="2" stroke-opacity="0.200000" points="181.88,-273.47 187.22,-270.03 180.9,-269.39 181.88,-273.47"/>
</g>
<!-- server/action/SearchAction.js -->
<g id="node6" class="node">
<title>server/action/SearchAction.js</title>
<g id="a_node6"><a xlink:href="server/action/SearchAction.js" xlink:title="SearchAction.js">
<path fill="#ffffcc" stroke="black" d="M260,-314C260,-314 192,-314 192,-314 189,-314 186,-311 186,-308 186,-308 186,-302 186,-302 186,-299 189,-296 192,-296 192,-296 260,-296 260,-296 263,-296 266,-299 266,-302 266,-302 266,-308 266,-308 266,-311 263,-314 260,-314"/>
<text text-anchor="middle" x="226" y="-302.8" font-family="Helvetica,sans-Serif" font-size="9.00">SearchAction.js</text>
</a>
</g>
</g>
<!-- server/action/ActionFactory.js&#45;&gt;server/action/SearchAction.js -->
<g id="edge3" class="edge">
<title>server/action/ActionFactory.js&#45;&gt;server/action/SearchAction.js</title>
<path fill="none" stroke="#000000" stroke-width="2" stroke-opacity="0.200000" d="M170.69,-292.01C174.18,-292.85 177.75,-293.7 181.29,-294.55"/>
<polygon fill="#000000" fill-opacity="0.200000" stroke="#000000" stroke-width="2" stroke-opacity="0.200000" points="180.9,-296.61 187.22,-295.97 181.88,-292.53 180.9,-296.61"/>
</g>
<!-- server/action/MissileAction.js&#45;&gt;server/action/Action.js -->
<g id="edge5" class="edge">
<title>server/action/MissileAction.js&#45;&gt;server/action/Action.js</title>
<path fill="none" stroke="#000000" stroke-width="2" stroke-opacity="0.200000" d="M252.96,-270.02C264.48,-274.02 278.14,-278.77 290.26,-282.98"/>
<polygon fill="#000000" fill-opacity="0.200000" stroke="#000000" stroke-width="2" stroke-opacity="0.200000" points="289.72,-285.01 296.07,-284.99 291.09,-281.04 289.72,-285.01"/>
</g>
<!-- server/cell/Cell.js -->
<g id="node7" class="node">
<title>server/cell/Cell.js</title>
<g id="a_node7"><a xlink:href="server/cell/Cell.js" xlink:title="Cell.js">
<path fill="#ffffcc" stroke="black" d="M447,-190C447,-190 405,-190 405,-190 402,-190 399,-187 399,-184 399,-184 399,-178 399,-178 399,-175 402,-172 405,-172 405,-172 447,-172 447,-172 450,-172 453,-175 453,-178 453,-178 453,-184 453,-184 453,-187 450,-190 447,-190"/>
<text text-anchor="middle" x="426" y="-178.8" font-family="Helvetica,sans-Serif" font-size="9.00">Cell.js</text>
</a>
</g>
</g>
<!-- server/action/MissileAction.js&#45;&gt;server/cell/Cell.js -->
<g id="edge4" class="edge">
<title>server/action/MissileAction.js&#45;&gt;server/cell/Cell.js</title>
<path fill="none" stroke="#000000" stroke-width="2" stroke-opacity="0.200000" d="M249.33,-251.98C285.57,-237.33 357.15,-208.42 396.83,-192.38"/>
<polygon fill="#000000" fill-opacity="0.200000" stroke="#000000" stroke-width="2" stroke-opacity="0.200000" points="397.67,-194.31 402.45,-190.11 396.1,-190.41 397.67,-194.31"/>
</g>
<!-- server/action/SearchAction.js&#45;&gt;server/action/Action.js -->
<g id="edge6" class="edge">
<title>server/action/SearchAction.js&#45;&gt;server/action/Action.js</title>
<path fill="none" stroke="#000000" stroke-width="2" stroke-opacity="0.200000" d="M266.19,-300.46C274.01,-299.56 282.15,-298.61 289.71,-297.74"/>
<polygon fill="#000000" fill-opacity="0.200000" stroke="#000000" stroke-width="2" stroke-opacity="0.200000" points="290.19,-299.8 295.91,-297.02 289.71,-295.62 290.19,-299.8"/>
</g>
<!-- server/action/index.js -->
<g id="node8" class="node">
<title>server/action/index.js</title>
<g id="a_node8"><a xlink:href="server/action/index.js" xlink:title="index.js">
<path fill="#ffffcc" stroke="black" d="M72,-303C72,-303 30,-303 30,-303 27,-303 24,-300 24,-297 24,-297 24,-291 24,-291 24,-288 27,-285 30,-285 30,-285 72,-285 72,-285 75,-285 78,-288 78,-291 78,-291 78,-297 78,-297 78,-300 75,-303 72,-303"/>
<text text-anchor="middle" x="51" y="-291.8" font-family="Helvetica,sans-Serif" font-size="9.00">index.js</text>
</a>
</g>
</g>
<!-- server/action/index.js&#45;&gt;server/action/Action.js -->
<g id="edge7" class="edge">
<title>server/action/index.js&#45;&gt;server/action/Action.js</title>
<path fill="none" stroke="#000000" stroke-width="2" stroke-opacity="0.200000" d="M78.3,-302.84C118.94,-315.24 199.3,-334.73 266,-320 278.36,-317.27 291.24,-311.52 301.53,-306.13"/>
<polygon fill="#000000" fill-opacity="0.200000" stroke="#000000" stroke-width="2" stroke-opacity="0.200000" points="302.68,-307.89 306.95,-303.18 300.68,-304.2 302.68,-307.89"/>
</g>
<!-- server/action/index.js&#45;&gt;server/action/ActionFactory.js -->
<g id="edge8" class="edge">
<title>server/action/index.js&#45;&gt;server/action/ActionFactory.js</title>
<path fill="none" stroke="#000000" stroke-width="2" stroke-opacity="0.200000" d="M78.31,-290.34C80.55,-290.03 82.85,-289.7 85.19,-289.38"/>
<polygon fill="#000000" fill-opacity="0.200000" stroke="#000000" stroke-width="2" stroke-opacity="0.200000" points="85.77,-291.42 91.42,-288.51 85.19,-287.26 85.77,-291.42"/>
</g>
<!-- server/action/index.js&#45;&gt;server/action/MissileAction.js -->
<g id="edge9" class="edge">
<title>server/action/index.js&#45;&gt;server/action/MissileAction.js</title>
<path fill="none" stroke="#000000" stroke-width="2" stroke-opacity="0.200000" d="M71.98,-284.85C74.07,-283.65 76.12,-282.36 78,-281 84.63,-276.22 83.54,-271.32 91,-268 106.36,-261.16 147.02,-259.81 179.55,-259.93"/>
<polygon fill="#000000" fill-opacity="0.200000" stroke="#000000" stroke-width="2" stroke-opacity="0.200000" points="179.92,-262.03 185.94,-259.97 179.95,-257.83 179.92,-262.03"/>
</g>
<!-- server/action/index.js&#45;&gt;server/action/SearchAction.js -->
<g id="edge10" class="edge">
<title>server/action/index.js&#45;&gt;server/action/SearchAction.js</title>
<path fill="none" stroke="#000000" stroke-width="2" stroke-opacity="0.200000" d="M78.42,-296.89C82.62,-297.3 86.93,-297.69 91,-298 120.57,-300.29 153.86,-302.03 179.87,-303.21"/>
<polygon fill="#000000" fill-opacity="0.200000" stroke="#000000" stroke-width="2" stroke-opacity="0.200000" points="179.89,-305.31 185.97,-303.48 180.07,-301.11 179.89,-305.31"/>
</g>
<!-- server/cell/utils.js -->
<g id="node9" class="node">
<title>server/cell/utils.js</title>
<g id="a_node9"><a xlink:href="server/cell/utils.js" xlink:title="utils.js">
<path fill="#ffffcc" stroke="black" d="M447,-160C447,-160 405,-160 405,-160 402,-160 399,-157 399,-154 399,-154 399,-148 399,-148 399,-145 402,-142 405,-142 405,-142 447,-142 447,-142 450,-142 453,-145 453,-148 453,-148 453,-154 453,-154 453,-157 450,-160 447,-160"/>
<text text-anchor="middle" x="426" y="-148.8" font-family="Helvetica,sans-Serif" font-size="9.00">utils.js</text>
</a>
</g>
</g>
<!-- server/exception/exceptions.js -->
<g id="node10" class="node">
<title>server/exception/exceptions.js</title>
<g id="a_node10"><a xlink:href="server/exception/exceptions.js" xlink:title="exceptions.js">
<path fill="#ffffcc" stroke="black" d="M455,-97C455,-97 397,-97 397,-97 394,-97 391,-94 391,-91 391,-91 391,-85 391,-85 391,-82 394,-79 397,-79 397,-79 455,-79 455,-79 458,-79 461,-82 461,-85 461,-85 461,-91 461,-91 461,-94 458,-97 455,-97"/>
<text text-anchor="middle" x="426" y="-85.8" font-family="Helvetica,sans-Serif" font-size="9.00">exceptions.js</text>
</a>
</g>
</g>
<!-- server/game/Game.js -->
<g id="node11" class="node">
<title>server/game/Game.js</title>
<g id="a_node11"><a xlink:href="server/game/Game.js" xlink:title="Game.js">
<path fill="#ffffcc" stroke="black" d="M247,-210C247,-210 205,-210 205,-210 202,-210 199,-207 199,-204 199,-204 199,-198 199,-198 199,-195 202,-192 205,-192 205,-192 247,-192 247,-192 250,-192 253,-195 253,-198 253,-198 253,-204 253,-204 253,-207 250,-210 247,-210"/>
<text text-anchor="middle" x="226" y="-198.8" font-family="Helvetica,sans-Serif" font-size="9.00">Game.js</text>
</a>
</g>
</g>
<!-- server/grid/Grid.js -->
<g id="node12" class="node">
<title>server/grid/Grid.js</title>
<g id="a_node12"><a xlink:href="server/grid/Grid.js" xlink:title="Grid.js">
<path fill="#ffffcc" stroke="black" d="M247,-150C247,-150 205,-150 205,-150 202,-150 199,-147 199,-144 199,-144 199,-138 199,-138 199,-135 202,-132 205,-132 205,-132 247,-132 247,-132 250,-132 253,-135 253,-138 253,-138 253,-144 253,-144 253,-147 250,-150 247,-150"/>
<text text-anchor="middle" x="226" y="-138.8" font-family="Helvetica,sans-Serif" font-size="9.00">Grid.js</text>
</a>
</g>
</g>
<!-- server/grid/Grid.js&#45;&gt;server/cell/Cell.js -->
<g id="edge11" class="edge">
<title>server/grid/Grid.js&#45;&gt;server/cell/Cell.js</title>
<path fill="none" stroke="#000000" stroke-width="2" stroke-opacity="0.200000" d="M235.94,-150.29C245.56,-159.57 261.82,-173.26 279,-179 316.49,-191.52 362.47,-189.53 392.69,-186.06"/>
<polygon fill="#000000" fill-opacity="0.200000" stroke="#000000" stroke-width="2" stroke-opacity="0.200000" points="393.19,-188.12 398.89,-185.31 392.68,-183.95 393.19,-188.12"/>
</g>
<!-- server/index.js -->
<g id="node13" class="node">
<title>server/index.js</title>
<g id="a_node13"><a xlink:href="server/index.js" xlink:title="index.js">
<path fill="#ffffcc" stroke="black" d="M72,-94C72,-94 30,-94 30,-94 27,-94 24,-91 24,-88 24,-88 24,-82 24,-82 24,-79 27,-76 30,-76 30,-76 72,-76 72,-76 75,-76 78,-79 78,-82 78,-82 78,-88 78,-88 78,-91 75,-94 72,-94"/>
<text text-anchor="middle" x="51" y="-82.8" font-family="Helvetica,sans-Serif" font-size="9.00">index.js</text>
</a>
</g>
</g>
<!-- server/index.js&#45;&gt;http -->
<g id="edge15" class="edge">
<title>server/index.js&#45;&gt;http</title>
<path fill="none" stroke="#000000" stroke-dasharray="5,2" stroke-opacity="0.200000" d="M67.61,-75.91C79.73,-68.86 96.65,-59 109.96,-51.25"/>
<polygon fill="#000000" fill-opacity="0.200000" stroke="#000000" stroke-opacity="0.200000" points="111.3,-52.9 115.42,-48.07 109.18,-49.27 111.3,-52.9"/>
</g>
<!-- server/index.js&#45;&gt;path -->
<g id="edge16" class="edge">
<title>server/index.js&#45;&gt;path</title>
<path fill="none" stroke="#000000" stroke-dasharray="5,2" stroke-opacity="0.200000" d="M55.62,-75.83C61.28,-62.61 73.41,-38.23 91,-24 93.4,-22.06 96.07,-20.36 98.86,-18.86"/>
<polygon fill="#000000" fill-opacity="0.200000" stroke="#000000" stroke-opacity="0.200000" points="100.21,-20.55 104.73,-16.08 98.41,-16.75 100.21,-20.55"/>
</g>
<!-- server/index.js&#45;&gt;server/action/ActionFactory.js -->
<g id="edge12" class="edge">
<title>server/index.js&#45;&gt;server/action/ActionFactory.js</title>
<path fill="none" stroke="#000000" stroke-width="2" stroke-opacity="0.200000" d="M53.38,-94.15C58.42,-127.1 76.17,-239.17 91.74,-268.6"/>
<polygon fill="#000000" fill-opacity="0.200000" stroke="#000000" stroke-width="2" stroke-opacity="0.200000" points="90.14,-269.99 95.23,-273.79 93.62,-267.64 90.14,-269.99"/>
</g>
<!-- server/index.js&#45;&gt;server/game/Game.js -->
<g id="edge13" class="edge">
<title>server/index.js&#45;&gt;server/game/Game.js</title>
<path fill="none" stroke="#000000" stroke-width="2" stroke-opacity="0.200000" d="M53.86,-94.22C57.73,-110.93 68.24,-146.22 91,-165 119.97,-188.9 163.35,-197.04 192.85,-199.75"/>
<polygon fill="#000000" fill-opacity="0.200000" stroke="#000000" stroke-width="2" stroke-opacity="0.200000" points="192.77,-201.86 198.92,-200.25 193.12,-197.67 192.77,-201.86"/>
</g>
<!-- server/scenario/Scenario.js -->
<g id="node14" class="node">
<title>server/scenario/Scenario.js</title>
<g id="a_node14"><a xlink:href="server/scenario/Scenario.js" xlink:title="Scenario.js">
<path fill="#ffffcc" stroke="black" d="M157,-94C157,-94 107,-94 107,-94 104,-94 101,-91 101,-88 101,-88 101,-82 101,-82 101,-79 104,-76 107,-76 107,-76 157,-76 157,-76 160,-76 163,-79 163,-82 163,-82 163,-88 163,-88 163,-91 160,-94 157,-94"/>
<text text-anchor="middle" x="132" y="-82.8" font-family="Helvetica,sans-Serif" font-size="9.00">Scenario.js</text>
</a>
</g>
</g>
<!-- server/index.js&#45;&gt;server/scenario/Scenario.js -->
<g id="edge14" class="edge">
<title>server/index.js&#45;&gt;server/scenario/Scenario.js</title>
<path fill="none" stroke="#000000" stroke-width="2" stroke-opacity="0.200000" d="M78.31,-85C83.65,-85 89.35,-85 94.96,-85"/>
<polygon fill="#000000" fill-opacity="0.200000" stroke="#000000" stroke-width="2" stroke-opacity="0.200000" points="94.99,-87.1 100.99,-85 94.99,-82.9 94.99,-87.1"/>
</g>
<!-- server/scenario/Scenario.js&#45;&gt;server/grid/Grid.js -->
<g id="edge24" class="edge">
<title>server/scenario/Scenario.js&#45;&gt;server/grid/Grid.js</title>
<path fill="none" stroke="#000000" stroke-width="2" stroke-opacity="0.200000" d="M163.03,-92.14C166.59,-93.73 170.01,-95.66 173,-98 181.64,-104.78 178.08,-111.4 186,-119 189.79,-122.64 194.29,-125.89 198.87,-128.7"/>
<polygon fill="#000000" fill-opacity="0.200000" stroke="#000000" stroke-width="2" stroke-opacity="0.200000" points="198,-130.62 204.25,-131.8 200.1,-126.98 198,-130.62"/>
</g>
<!-- server/player/Player.js -->
<g id="node15" class="node">
<title>server/player/Player.js</title>
<g id="a_node15"><a xlink:href="server/player/Player.js" xlink:title="Player.js">
<path fill="#ffffcc" stroke="black" d="M247,-90C247,-90 205,-90 205,-90 202,-90 199,-87 199,-84 199,-84 199,-78 199,-78 199,-75 202,-72 205,-72 205,-72 247,-72 247,-72 250,-72 253,-75 253,-78 253,-78 253,-84 253,-84 253,-87 250,-90 247,-90"/>
<text text-anchor="middle" x="226" y="-78.8" font-family="Helvetica,sans-Serif" font-size="9.00">Player.js</text>
</a>
</g>
</g>
<!-- server/scenario/Scenario.js&#45;&gt;server/player/Player.js -->
<g id="edge25" class="edge">
<title>server/scenario/Scenario.js&#45;&gt;server/player/Player.js</title>
<path fill="none" stroke="#000000" stroke-width="2" stroke-opacity="0.200000" d="M163.12,-83.69C172.58,-83.28 183.06,-82.82 192.66,-82.41"/>
<polygon fill="#000000" fill-opacity="0.200000" stroke="#000000" stroke-width="2" stroke-opacity="0.200000" points="192.93,-84.5 198.83,-82.14 192.74,-80.3 192.93,-84.5"/>
</g>
<!-- server/ship/Ship.js -->
<g id="node16" class="node">
<title>server/ship/Ship.js</title>
<g id="a_node16"><a xlink:href="server/ship/Ship.js" xlink:title="Ship.js">
<path fill="#ffffcc" stroke="black" d="M344,-150C344,-150 302,-150 302,-150 299,-150 296,-147 296,-144 296,-144 296,-138 296,-138 296,-135 299,-132 302,-132 302,-132 344,-132 344,-132 347,-132 350,-135 350,-138 350,-138 350,-144 350,-144 350,-147 347,-150 344,-150"/>
<text text-anchor="middle" x="323" y="-138.8" font-family="Helvetica,sans-Serif" font-size="9.00">Ship.js</text>
</a>
</g>
</g>
<!-- server/player/Player.js&#45;&gt;server/ship/Ship.js -->
<g id="edge17" class="edge">
<title>server/player/Player.js&#45;&gt;server/ship/Ship.js</title>
<path fill="none" stroke="#000000" stroke-width="2" stroke-opacity="0.200000" d="M238.61,-90.31C248.91,-98.36 264.53,-110.09 279,-119 284.79,-122.57 291.24,-126.09 297.33,-129.23"/>
<polygon fill="#000000" fill-opacity="0.200000" stroke="#000000" stroke-width="2" stroke-opacity="0.200000" points="296.5,-131.16 302.81,-131.99 298.4,-127.41 296.5,-131.16"/>
</g>
<!-- server/player/ShipPlacement.js -->
<g id="node17" class="node">
<title>server/player/ShipPlacement.js</title>
<g id="a_node17"><a xlink:href="server/player/ShipPlacement.js" xlink:title="ShipPlacement.js">
<path fill="#ffffcc" stroke="black" d="M361,-90C361,-90 285,-90 285,-90 282,-90 279,-87 279,-84 279,-84 279,-78 279,-78 279,-75 282,-72 285,-72 285,-72 361,-72 361,-72 364,-72 367,-75 367,-78 367,-78 367,-84 367,-84 367,-87 364,-90 361,-90"/>
<text text-anchor="middle" x="323" y="-78.8" font-family="Helvetica,sans-Serif" font-size="9.00">ShipPlacement.js</text>
</a>
</g>
</g>
<!-- server/player/Player.js&#45;&gt;server/player/ShipPlacement.js -->
<g id="edge18" class="edge">
<title>server/player/Player.js&#45;&gt;server/player/ShipPlacement.js</title>
<path fill="none" stroke="#000000" stroke-width="2" stroke-opacity="0.200000" d="M253.21,-81C259.27,-81 265.9,-81 272.59,-81"/>
<polygon fill="#000000" fill-opacity="0.200000" stroke="#000000" stroke-width="2" stroke-opacity="0.200000" points="272.73,-83.1 278.73,-81 272.73,-78.9 272.73,-83.1"/>
</g>
<!-- server/ship/Ship.js&#45;&gt;server/cell/Cell.js -->
<g id="edge26" class="edge">
<title>server/ship/Ship.js&#45;&gt;server/cell/Cell.js</title>
<path fill="none" stroke="#000000" stroke-width="2" stroke-opacity="0.200000" d="M344.63,-150.09C355.9,-154.96 370.15,-160.99 383,-166 386.16,-167.23 389.46,-168.48 392.77,-169.7"/>
<polygon fill="#000000" fill-opacity="0.200000" stroke="#000000" stroke-width="2" stroke-opacity="0.200000" points="392.34,-171.78 398.7,-171.87 393.79,-167.84 392.34,-171.78"/>
</g>
<!-- server/ship/Ship.js&#45;&gt;server/cell/utils.js -->
<g id="edge27" class="edge">
<title>server/ship/Ship.js&#45;&gt;server/cell/utils.js</title>
<path fill="none" stroke="#000000" stroke-width="2" stroke-opacity="0.200000" d="M350.01,-143.58C362.99,-144.86 378.81,-146.43 392.57,-147.79"/>
<polygon fill="#000000" fill-opacity="0.200000" stroke="#000000" stroke-width="2" stroke-opacity="0.200000" points="392.55,-149.9 398.73,-148.4 392.96,-145.72 392.55,-149.9"/>
</g>
<!-- server/ship/Ship.js&#45;&gt;server/exception/exceptions.js -->
<g id="edge28" class="edge">
<title>server/ship/Ship.js&#45;&gt;server/exception/exceptions.js</title>
<path fill="none" stroke="#000000" stroke-width="2" stroke-opacity="0.200000" d="M346.93,-131.96C355.83,-128.23 366.02,-123.69 375,-119 385.6,-113.47 396.95,-106.52 406.16,-100.6"/>
<polygon fill="#000000" fill-opacity="0.200000" stroke="#000000" stroke-width="2" stroke-opacity="0.200000" points="407.43,-102.28 411.31,-97.25 405.14,-98.76 407.43,-102.28"/>
</g>
<!-- server/player/ShipPlacement.js&#45;&gt;server/exception/exceptions.js -->
<g id="edge19" class="edge">
<title>server/player/ShipPlacement.js&#45;&gt;server/exception/exceptions.js</title>
<path fill="none" stroke="#000000" stroke-width="2" stroke-opacity="0.200000" d="M367.13,-83.99C372.95,-84.39 378.91,-84.81 384.69,-85.21"/>
<polygon fill="#000000" fill-opacity="0.200000" stroke="#000000" stroke-width="2" stroke-opacity="0.200000" points="384.74,-87.31 390.87,-85.63 385.03,-83.12 384.74,-87.31"/>
</g>
<!-- server/runAScenario.js -->
<g id="node18" class="node">
<title>server/runAScenario.js</title>
<g id="a_node18"><a xlink:href="server/runAScenario.js" xlink:title="runAScenario.js">
<path fill="#ffffcc" stroke="black" d="M167,-159C167,-159 97,-159 97,-159 94,-159 91,-156 91,-153 91,-153 91,-147 91,-147 91,-144 94,-141 97,-141 97,-141 167,-141 167,-141 170,-141 173,-144 173,-147 173,-147 173,-153 173,-153 173,-156 170,-159 167,-159"/>
<text text-anchor="middle" x="132" y="-147.8" font-family="Helvetica,sans-Serif" font-size="9.00">runAScenario.js</text>
</a>
</g>
</g>
<!-- server/runAScenario.js&#45;&gt;server/action/MissileAction.js -->
<g id="edge20" class="edge">
<title>server/runAScenario.js&#45;&gt;server/action/MissileAction.js</title>
<path fill="none" stroke="#000000" stroke-width="2" stroke-opacity="0.200000" d="M136.54,-159.11C143.66,-176.48 161.17,-214.75 186,-239 189.76,-242.67 194.25,-245.94 198.82,-248.75"/>
<polygon fill="#000000" fill-opacity="0.200000" stroke="#000000" stroke-width="2" stroke-opacity="0.200000" points="197.95,-250.67 204.19,-251.85 200.05,-247.04 197.95,-250.67"/>
</g>
<!-- server/runAScenario.js&#45;&gt;server/game/Game.js -->
<g id="edge21" class="edge">
<title>server/runAScenario.js&#45;&gt;server/game/Game.js</title>
<path fill="none" stroke="#000000" stroke-width="2" stroke-opacity="0.200000" d="M149.45,-159.12C164.49,-167.46 186.85,-179.85 203.35,-189"/>
<polygon fill="#000000" fill-opacity="0.200000" stroke="#000000" stroke-width="2" stroke-opacity="0.200000" points="202.43,-190.89 208.69,-191.96 204.47,-187.22 202.43,-190.89"/>
</g>
<!-- server/runAScenario.js&#45;&gt;server/grid/Grid.js -->
<g id="edge22" class="edge">
<title>server/runAScenario.js&#45;&gt;server/grid/Grid.js</title>
<path fill="none" stroke="#000000" stroke-width="2" stroke-opacity="0.200000" d="M173.08,-146.08C179.62,-145.44 186.32,-144.78 192.64,-144.17"/>
<polygon fill="#000000" fill-opacity="0.200000" stroke="#000000" stroke-width="2" stroke-opacity="0.200000" points="193.05,-146.24 198.82,-143.56 192.64,-142.06 193.05,-146.24"/>
</g>
<!-- server/runAScenario.js&#45;&gt;server/player/Player.js -->
<g id="edge23" class="edge">
<title>server/runAScenario.js&#45;&gt;server/player/Player.js</title>
<path fill="none" stroke="#000000" stroke-width="2" stroke-opacity="0.200000" d="M147.27,-140.79C155,-135.7 164.65,-129.18 173,-123 185.51,-113.75 199.18,-102.67 209.36,-94.21"/>
<polygon fill="#000000" fill-opacity="0.200000" stroke="#000000" stroke-width="2" stroke-opacity="0.200000" points="210.8,-95.75 214.06,-90.29 208.11,-92.53 210.8,-95.75"/>
</g>
</g>
</svg>
